<svg width="335" height="395" viewBox="0 0 335 395" fill="none" xmlns="http://www.w3.org/2000/svg">
<path d="M10.0801 4.62793H8.46777V7.66211H6.55713C6.27783 6.26562 5.05908 5.31982 3.56738 5.32617C1.81543 5.31982 0.482422 6.53857 0.495117 8.25879C0.482422 9.96631 1.81543 11.2104 3.56738 11.2168C5.01465 11.2104 6.20801 10.3027 6.53174 8.96973H8.46777V13.0703H10.0801V4.62793ZM2.03125 8.25879C2.0249 7.29395 2.69141 6.73535 3.56738 6.73535C4.41797 6.73535 5.07178 7.29395 5.07812 8.25879C5.07178 9.21729 4.41797 9.80762 3.56738 9.80762C2.69141 9.80762 2.0249 9.21729 2.03125 8.25879ZM2.41211 15.9648H10.3594V14.6699H4.03711V12.2197H2.41211V15.9648ZM22.1406 11.001H17.6592V10.1123H21.0742V8.88086H14.498V8.06836H20.8584V4.86914H12.8604V6.11328H19.2334V6.92578H12.8857V10.1123H16.0469V11.001H11.5654V12.2959H22.1406V11.001ZM12.8984 16.2314H21.1123V14.9365H14.5234V12.8799H12.8984V16.2314ZM26.5586 5.38965C24.7368 5.3833 23.3403 6.56396 23.3467 8.2207C23.3403 9.88379 24.7368 11.0581 26.5586 11.0645C28.3931 11.0581 29.7515 9.88379 29.7578 8.2207C29.7515 6.56396 28.3931 5.3833 26.5586 5.38965ZM22.8643 12.5117L23.0547 13.832C25.0732 13.832 27.8154 13.813 30.3799 13.3115L30.2529 12.1436C27.7837 12.4927 24.9272 12.5181 22.8643 12.5117ZM24.959 8.2207C24.9526 7.31934 25.6445 6.78613 26.5586 6.78613C27.479 6.78613 28.1772 7.31934 28.1836 8.2207C28.1772 9.13477 27.479 9.66162 26.5586 9.65527C25.6445 9.66162 24.9526 9.13477 24.959 8.2207ZM30.9131 16.1934H32.5254V4.61523H30.9131V16.1934ZM47.582 10.9883H37.0449V12.2832H41.4883V16.168H43.0879V12.2832H47.582V10.9883ZM37.5654 9.0459L38.1621 10.3154C40.1743 10.0425 41.6152 9.1792 42.3198 7.99219C43.0181 9.1792 44.4717 10.0425 46.5029 10.3154L47.0869 9.0459C44.7129 8.76025 43.437 7.63037 43.272 6.49414H46.6426V5.22461H37.9971V6.49414H41.3677C41.1963 7.63037 39.9014 8.76025 37.5654 9.0459ZM57.4844 5.07227H49.5879V9.13477H52.7236V10.2393H48.2803V11.5469H58.8174V10.2393H54.3486V9.13477H57.4844V5.07227ZM49.4482 13.667H55.9229V16.168H57.5352V12.3975H49.4482V13.667ZM51.1748 7.86523V6.3291H55.8975V7.86523H51.1748ZM70.2432 6.16406H68.6816V4.62793H67.0566V11.5977H68.6816V9.94727H70.2432V8.61426H68.6816V7.50977H70.2432V6.16406ZM59.9219 6.58301H63.6543V7.53516H59.9346V11.0898H60.9121C63.2544 11.0898 64.7397 11.0327 66.3965 10.7217L66.2188 9.42676C64.7461 9.68701 63.4512 9.75684 61.5469 9.76953V8.75391H65.2285V5.31348H59.9219V6.58301ZM60.9121 13.9971C60.9121 15.3618 62.4292 16.1553 64.873 16.1553C67.2725 16.1553 68.7896 15.3618 68.7959 13.9971C68.7896 12.6069 67.2725 11.7754 64.873 11.7754C62.4292 11.7754 60.9121 12.6069 60.9121 13.9971ZM62.5117 13.9971C62.499 13.356 63.3306 13.0259 64.873 13.0322C66.3965 13.0259 67.1963 13.356 67.1963 13.9971C67.1963 14.6255 66.3965 14.9492 64.873 14.9492C63.3306 14.9492 62.499 14.6255 62.5117 13.9971ZM77.251 5.77051H71.2588V7.06543H75.6387C75.626 8.0874 75.6006 9.3252 75.334 11.001L76.9336 11.1279C77.2383 9.20459 77.2383 7.78271 77.251 6.69727V5.77051ZM70.6494 12.5117L70.8018 13.8066C72.8267 13.8193 75.4419 13.7749 77.8223 13.375L77.7207 12.1689C76.6543 12.3086 75.5054 12.3911 74.3691 12.4355V9.08398H72.7695V12.4863C72.0205 12.5054 71.2969 12.5117 70.6494 12.5117ZM78.2666 16.168H79.9043V10.6074H81.4785V9.26172H79.9043V4.61523H78.2666V16.168ZM5.29395 26.542H0.749023V31.9248H1.56152C3.28174 31.9248 4.43701 31.874 5.77637 31.6328L5.62402 30.3252C4.57031 30.5347 3.61182 30.6045 2.36133 30.6172V27.8369H5.29395V26.542ZM1.71387 35.873L2.37402 37.1299C4.2085 36.8379 5.54785 36.0254 6.26514 34.9336C6.96338 36.0254 8.30273 36.8379 10.1436 37.1299L10.8164 35.873C8.32178 35.543 7.06494 34.2354 7.07129 32.9912V32.6484H5.44629V32.9912C5.44629 34.2354 4.18311 35.543 1.71387 35.873ZM6.2207 32.1787H7.73145V29.7158H8.73438V33.2197H10.2705V25.6152H8.73438V28.3955H7.73145V25.8057H6.2207V32.1787ZM20.8965 26.085H12.873V27.3672H19.2778C19.2651 28.0083 19.2271 28.7637 19.043 29.7031H11.5781V30.9727H22.1533V29.7031H20.6743C20.9028 28.5415 20.9028 27.6147 20.8965 26.8721V26.085ZM12.7715 33.042H19.2461V33.8037H12.7842V37.0791H21.1631V35.835H14.3965V35.0225H20.8457V31.7852H12.7715V33.042ZM34.9756 25.6279H33.3506V34.1338H34.9756V30.2109H36.5371V28.8779H34.9756V25.6279ZM26.1523 32.293H31.751V26.4404H30.126V28.1162H27.7646V26.4404H26.1523V32.293ZM27.4854 36.9648H35.3945V35.6699H29.0977V33.2578H27.4854V36.9648ZM27.7646 31.0234V29.3604H30.126V31.0234H27.7646ZM47.582 31.0234H37.0449V32.293H47.582V31.0234ZM38.0986 28.1289C38.0986 29.5381 39.7554 30.3887 42.3135 30.3887C44.8525 30.3887 46.5093 29.5381 46.5156 28.1289C46.5093 26.7324 44.8525 25.8628 42.3135 25.8564C39.7554 25.8628 38.0986 26.7324 38.0986 28.1289ZM38.251 35.0605C38.251 36.4253 39.7681 37.187 42.3008 37.1807C44.7954 37.187 46.3125 36.4253 46.3252 35.0605C46.3125 33.6958 44.7954 32.9341 42.3008 32.9404C39.7681 32.9341 38.251 33.6958 38.251 35.0605ZM39.7871 28.1289C39.7744 27.4497 40.6948 27.126 42.3135 27.126C43.9067 27.126 44.8398 27.4497 44.8398 28.1289C44.8398 28.8018 43.9067 29.1318 42.3135 29.1318C40.6948 29.1318 39.7744 28.8018 39.7871 28.1289ZM39.9014 35.0605C39.895 34.4512 40.7012 34.1655 42.3008 34.1592C43.8687 34.1655 44.6938 34.4512 44.7002 35.0605C44.6938 35.6572 43.8687 35.9429 42.3008 35.9492C40.7012 35.9429 39.895 35.6572 39.9014 35.0605Z" fill="white"/>
<path d="M8.31543 52.8086H7.18555V59.9814H7.09668L2.12012 52.8086H1.01562V62H2.1582V54.8398H2.24707L7.22363 62H8.31543V52.8086ZM9.87695 60.0449C9.87695 61.3906 10.918 62.1587 12.2256 62.165C13.4253 62.1587 14.0537 61.5239 14.2822 61.0605H14.333V62H15.4121V57.4551C15.4185 55.2842 13.7236 55.0176 12.8223 55.0176C11.2988 55.0176 10.2197 55.7856 10.0801 56.8965H11.2227C11.375 56.3696 11.9019 55.9697 12.7715 55.9697C13.8125 55.9697 14.333 56.4775 14.333 57.3535V57.9121C14.022 57.9185 12.9111 57.9819 12.4668 58.0137C11.2734 58.1025 9.87695 58.4644 9.87695 60.0449ZM10.9688 60.0957C10.9751 59.3403 11.6035 58.9912 12.5938 58.9277C12.9238 58.9087 14.0093 58.8262 14.333 58.8071V59.499C14.333 60.3687 13.6475 61.1938 12.416 61.1875C11.5781 61.1938 10.9751 60.8257 10.9688 60.0957ZM22.585 55.1064H21.3916L19.5127 60.5781H19.4365L17.5576 55.1064H16.3643L18.9033 62H20.0332L22.585 55.1064ZM26.4316 62.1396C27.8535 62.146 28.8755 61.4351 29.1992 60.3877H28.0312C27.7773 60.813 27.2568 61.1748 26.4316 61.1748C25.2065 61.1748 24.356 60.375 24.2988 58.915H29.3008V58.458C29.3071 55.9062 27.7773 55.0176 26.3301 55.0176C24.4575 55.0176 23.207 56.4902 23.207 58.6104C23.207 60.7241 24.4385 62.146 26.4316 62.1396ZM24.3052 57.9883C24.3813 56.9219 25.1367 55.9824 26.3301 55.9824C27.4663 55.9824 28.1899 56.8394 28.1963 57.9883H24.3052ZM30.7227 62H31.8145V57.6582C31.8145 56.7314 32.5508 56.0459 33.541 56.0459C33.8267 56.0459 34.1187 56.103 34.2012 56.1221V55.0176C34.0742 55.0049 33.7949 54.9985 33.6299 54.9922C32.8174 54.9985 32.1001 55.4619 31.8525 56.1602H31.7764V55.1064H30.7227V62ZM45.9697 52.8086H44.8398V59.9814H44.751L39.7744 52.8086H38.6699V62H39.8125V54.8398H39.9014L44.8779 62H45.9697V52.8086ZM50.7559 62.1396C52.1777 62.146 53.1997 61.4351 53.5234 60.3877H52.3555C52.1016 60.813 51.5811 61.1748 50.7559 61.1748C49.5308 61.1748 48.6802 60.375 48.623 58.915H53.625V58.458C53.6313 55.9062 52.1016 55.0176 50.6543 55.0176C48.7817 55.0176 47.5312 56.4902 47.5312 58.6104C47.5312 60.7241 48.7627 62.146 50.7559 62.1396ZM48.6294 57.9883C48.7056 56.9219 49.4609 55.9824 50.6543 55.9824C51.7905 55.9824 52.5142 56.8394 52.5205 57.9883H48.6294ZM56.5957 62H57.6875L59.1729 56.7441H59.2744L60.7725 62H61.8516L63.9463 55.1064H62.8037L61.3311 60.3369H61.2549L59.8203 55.1064H58.6523L57.1924 60.3623H57.1289L55.6562 55.1064H54.501L56.5957 62ZM68.9863 56.8965H70.0527C69.9131 55.7793 69.0181 55.0176 67.5898 55.0176C66.0728 55.0176 65.0381 55.8682 65.0381 57.0488C65.0381 57.9692 65.6792 58.623 66.8789 58.9023L67.9199 59.1436C68.7007 59.3276 69.0498 59.645 69.0498 60.1338C69.0498 60.7812 68.4341 61.1938 67.4502 61.1875C66.5806 61.1938 66.0918 60.8701 65.9648 60.1973H64.8223C65.0063 61.4541 65.9268 62.146 67.4756 62.1396C69.2021 62.146 70.1733 61.2637 70.1797 60.0703C70.1733 59.1118 69.5703 58.4961 68.3389 58.2041L67.3105 57.9502C66.5044 57.7534 66.1362 57.4424 66.1299 56.9854C66.1362 56.4077 66.7393 55.9507 67.5898 55.9443C68.396 55.9507 68.834 56.3252 68.9863 56.8965Z" fill="white" fill-opacity="0.4"/>
<path d="M3.87207 81C6.67139 81 8.25195 79.2607 8.25195 76.3916C8.25195 73.5288 6.67139 71.8086 3.98633 71.8086H1.01562V81H3.87207ZM2.1582 79.9844V72.8242H3.91016C6.04932 72.8242 7.13477 74.1699 7.13477 76.3916C7.13477 78.6196 6.04932 79.9844 3.7959 79.9844H2.1582ZM9.45801 79.0449C9.45801 80.3906 10.499 81.1587 11.8066 81.165C13.0063 81.1587 13.6348 80.5239 13.8633 80.0605H13.9141V81H14.9932V76.4551C14.9995 74.2842 13.3047 74.0176 12.4033 74.0176C10.8799 74.0176 9.80078 74.7856 9.66113 75.8965H10.8037C10.9561 75.3696 11.4829 74.9697 12.3525 74.9697C13.3936 74.9697 13.9141 75.4775 13.9141 76.3535V76.9121C13.603 76.9185 12.4922 76.9819 12.0479 77.0137C10.8545 77.1025 9.45801 77.4644 9.45801 79.0449ZM10.5498 79.0957C10.5562 78.3403 11.1846 77.9912 12.1748 77.9277C12.5049 77.9087 13.5903 77.8262 13.9141 77.8071V78.499C13.9141 79.3687 13.2285 80.1938 11.9971 80.1875C11.1592 80.1938 10.5562 79.8257 10.5498 79.0957ZM21.0996 78.1689C21.0933 79.4575 20.1157 80.0415 19.335 80.0352C18.4526 80.0415 17.8369 79.4004 17.8369 78.4102V74.1064H16.7451V78.4863C16.7388 80.2383 17.6719 81.0889 18.9795 81.0889C20.0142 81.0889 20.6997 80.5303 21.0234 79.832H21.0996V81H22.1787V74.1064H21.0996V78.1689ZM23.9307 81H25.0225V76.6963C25.0225 75.6934 25.7461 74.9951 26.5713 74.9951C27.3647 74.9951 27.9233 75.5156 27.917 76.29V81H29.0215V76.5186C29.0278 75.6426 29.5737 74.9951 30.5322 74.9951C31.2876 74.9951 31.9224 75.3887 31.9287 76.4043V81H33.0205V76.3916C33.0205 74.7666 32.1382 74.0176 30.9131 74.0176C29.9229 74.0176 29.1929 74.4746 28.8438 75.1855H28.7676C28.4438 74.4492 27.8281 74.0176 26.9268 74.0176C26.0254 74.0176 25.3589 74.4492 25.0732 75.1855H24.9844V74.1064H23.9307V81ZM45.4746 71.8086H44.3447V78.9814H44.2559L39.2793 71.8086H38.1748V81H39.3174V73.8398H39.4062L44.3828 81H45.4746V71.8086ZM50.2607 81.1396C51.6826 81.146 52.7046 80.4351 53.0283 79.3877H51.8604C51.6064 79.813 51.0859 80.1748 50.2607 80.1748C49.0356 80.1748 48.1851 79.375 48.1279 77.915H53.1299V77.458C53.1362 74.9062 51.6064 74.0176 50.1592 74.0176C48.2866 74.0176 47.0361 75.4902 47.0361 77.6104C47.0361 79.7241 48.2676 81.146 50.2607 81.1396ZM48.1343 76.9883C48.2104 75.9219 48.9658 74.9824 50.1592 74.9824C51.2954 74.9824 52.019 75.8394 52.0254 76.9883H48.1343ZM56.1006 81H57.1924L58.6777 75.7441H58.7793L60.2773 81H61.3564L63.4512 74.1064H62.3086L60.8359 79.3369H60.7598L59.3252 74.1064H58.1572L56.6973 79.3623H56.6338L55.1611 74.1064H54.0059L56.1006 81ZM68.4912 75.8965H69.5576C69.418 74.7793 68.5229 74.0176 67.0947 74.0176C65.5776 74.0176 64.543 74.8682 64.543 76.0488C64.543 76.9692 65.1841 77.623 66.3838 77.9023L67.4248 78.1436C68.2056 78.3276 68.5547 78.645 68.5547 79.1338C68.5547 79.7812 67.939 80.1938 66.9551 80.1875C66.0854 80.1938 65.5967 79.8701 65.4697 79.1973H64.3271C64.5112 80.4541 65.4316 81.146 66.9805 81.1396C68.707 81.146 69.6782 80.2637 69.6846 79.0703C69.6782 78.1118 69.0752 77.4961 67.8438 77.2041L66.8154 76.9502C66.0093 76.7534 65.6411 76.4424 65.6348 75.9854C65.6411 75.4077 66.2441 74.9507 67.0947 74.9443C67.9009 74.9507 68.3389 75.3252 68.4912 75.8965Z" fill="white" fill-opacity="0.4"/>
<path d="M8.31543 90.8086H7.18555V97.9814H7.09668L2.12012 90.8086H1.01562V100H2.1582V92.8398H2.24707L7.22363 100H8.31543V90.8086ZM9.87695 98.0449C9.87695 99.3906 10.918 100.159 12.2256 100.165C13.4253 100.159 14.0537 99.5239 14.2822 99.0605H14.333V100H15.4121V95.4551C15.4185 93.2842 13.7236 93.0176 12.8223 93.0176C11.2988 93.0176 10.2197 93.7856 10.0801 94.8965H11.2227C11.375 94.3696 11.9019 93.9697 12.7715 93.9697C13.8125 93.9697 14.333 94.4775 14.333 95.3535V95.9121C14.022 95.9185 12.9111 95.9819 12.4668 96.0137C11.2734 96.1025 9.87695 96.4644 9.87695 98.0449ZM10.9688 98.0957C10.9751 97.3403 11.6035 96.9912 12.5938 96.9277C12.9238 96.9087 14.0093 96.8262 14.333 96.8071V97.499C14.333 98.3687 13.6475 99.1938 12.416 99.1875C11.5781 99.1938 10.9751 98.8257 10.9688 98.0957ZM20.1729 93.1064H18.7256V91.4561H17.6211V93.1064H16.5801V94.0205H17.6211V98.2988C17.6274 99.5176 18.5923 100.089 19.5127 100.089C19.8364 100.089 20.103 100.063 20.2744 100.038V99.0225C20.1157 99.0288 19.8237 99.0479 19.627 99.0479C19.1636 99.0479 18.7192 98.9019 18.7256 98.0195V94.0205H20.1729V93.1064ZM24.4004 100.14C25.8223 100.146 26.8442 99.4351 27.168 98.3877H26C25.7461 98.813 25.2256 99.1748 24.4004 99.1748C23.1753 99.1748 22.3247 98.375 22.2676 96.915H27.2695V96.458C27.2759 93.9062 25.7461 93.0176 24.2988 93.0176C22.4263 93.0176 21.1758 94.4902 21.1758 96.6104C21.1758 98.7241 22.4072 100.146 24.4004 100.14ZM22.2739 95.9883C22.3501 94.9219 23.1055 93.9824 24.2988 93.9824C25.4351 93.9824 26.1587 94.8394 26.165 95.9883H22.2739ZM39.3936 90.8086H38.2637V97.9814H38.1748L33.1982 90.8086H32.0938V100H33.2363V92.8398H33.3252L38.3018 100H39.3936V90.8086ZM44.1797 100.14C45.6016 100.146 46.6235 99.4351 46.9473 98.3877H45.7793C45.5254 98.813 45.0049 99.1748 44.1797 99.1748C42.9546 99.1748 42.104 98.375 42.0469 96.915H47.0488V96.458C47.0552 93.9062 45.5254 93.0176 44.0781 93.0176C42.2056 93.0176 40.9551 94.4902 40.9551 96.6104C40.9551 98.7241 42.1865 100.146 44.1797 100.14ZM42.0532 95.9883C42.1294 94.9219 42.8848 93.9824 44.0781 93.9824C45.2144 93.9824 45.938 94.8394 45.9443 95.9883H42.0532ZM50.0195 100H51.1113L52.5967 94.7441H52.6982L54.1963 100H55.2754L57.3701 93.1064H56.2275L54.7549 98.3369H54.6787L53.2441 93.1064H52.0762L50.6162 98.3623H50.5527L49.0801 93.1064H47.9248L50.0195 100ZM62.4102 94.8965H63.4766C63.3369 93.7793 62.4419 93.0176 61.0137 93.0176C59.4966 93.0176 58.4619 93.8682 58.4619 95.0488C58.4619 95.9692 59.103 96.623 60.3027 96.9023L61.3438 97.1436C62.1245 97.3276 62.4736 97.645 62.4736 98.1338C62.4736 98.7812 61.8579 99.1938 60.874 99.1875C60.0044 99.1938 59.5156 98.8701 59.3887 98.1973H58.2461C58.4302 99.4541 59.3506 100.146 60.8994 100.14C62.626 100.146 63.5972 99.2637 63.6035 98.0703C63.5972 97.1118 62.9941 96.4961 61.7627 96.2041L60.7344 95.9502C59.9282 95.7534 59.5601 95.4424 59.5537 94.9854C59.5601 94.4077 60.1631 93.9507 61.0137 93.9443C61.8198 93.9507 62.2578 94.3252 62.4102 94.8965Z" fill="white" fill-opacity="0.4"/>
<path d="M237.906 4.61523H236.269V16.1934H237.906V4.61523ZM228.804 13.4893H234.517V5.5293H232.917V8.34766H230.429V5.5293H228.804V13.4893ZM230.429 12.1816V9.60449H232.917V12.1816H230.429ZM249.142 4.61523H247.504V16.1934H249.142V4.61523ZM240.166 13.4385H241.169C243.67 13.4385 245.143 13.3877 246.742 13.083L246.59 11.75C245.136 12.0103 243.86 12.0674 241.791 12.0674V6.95117H245.79V5.63086H240.166V13.4385ZM255.972 5.21191C253.49 5.21191 251.63 6.46875 251.63 8.37305C251.63 10.1123 253.096 11.2803 255.159 11.5151V13.4893H250.703V14.8223H261.278V13.4893H256.771V11.5151C258.847 11.2866 260.32 10.1187 260.326 8.37305C260.32 6.46875 258.454 5.21191 255.972 5.21191ZM253.229 8.37305C253.229 7.21777 254.353 6.50049 255.972 6.50684C257.597 6.50049 258.72 7.21777 258.727 8.37305C258.72 9.5918 257.597 10.271 255.972 10.2773C254.353 10.271 253.229 9.5918 253.229 8.37305ZM274.253 5.03418H266.229V6.30371H272.641C272.634 6.52588 272.634 6.74805 272.628 6.97656L265.912 7.11621L266.09 8.36035L272.552 8.10645C272.52 8.41113 272.476 8.73486 272.406 9.08398H264.96V10.3662H275.446V9.08398H274.031C274.259 7.90967 274.259 6.94482 274.253 6.03711V5.03418ZM266.103 12.2832H272.691V12.918H266.115V16.041H274.71V14.7969H267.728V14.0859H274.304V11.0518H266.103V12.2832ZM285.844 4.62793H284.219V11.0645H285.844V4.62793ZM276.767 6.43066H280.512V7.34473H276.779V10.8613H277.795C280.086 10.8613 281.648 10.8169 283.419 10.5186L283.216 9.22363C281.661 9.49023 280.296 9.52832 278.366 9.54102V8.57617H282.124V5.13574H276.767V6.43066ZM278.112 16.041H285.844V11.5469H284.231V12.5371H279.725V11.5469H278.112V16.041ZM279.725 14.7461V13.7939H284.231V14.7461H279.725ZM299.517 4.61523H297.892V16.1934H299.517V10.2266H301.218V8.90625H299.517V4.61523ZM290.858 13.3877H291.836C293.874 13.394 295.448 13.3496 297.244 13.0449L297.066 11.6865C295.53 11.9531 294.146 12.042 292.471 12.0547V6.98926H296.279V5.68164H290.858V13.3877ZM312.301 6.0498H310.803V4.61523H309.178V11.3691H310.803V9.89648H312.301V8.56348H310.803V7.37012H312.301V6.0498ZM301.713 8.04297C301.707 9.67432 303.078 10.8423 304.887 10.8359C306.677 10.8423 308.035 9.67432 308.035 8.04297C308.035 6.39893 306.677 5.24365 304.887 5.25C303.078 5.24365 301.707 6.39893 301.713 8.04297ZM303.059 13.8955C303.052 15.3174 304.601 16.1743 307.02 16.168C309.394 16.1743 310.911 15.3174 310.917 13.8955C310.911 12.4546 309.394 11.604 307.02 11.5977C304.601 11.604 303.052 12.4546 303.059 13.8955ZM303.312 8.04297C303.3 7.1543 303.979 6.60205 304.887 6.6084C305.775 6.60205 306.455 7.1543 306.461 8.04297C306.455 8.94434 305.775 9.47119 304.887 9.47754C303.979 9.47119 303.3 8.94434 303.312 8.04297ZM304.684 13.8955C304.671 13.2227 305.502 12.8862 307.02 12.8799C308.518 12.8862 309.317 13.2227 309.317 13.8955C309.317 14.5747 308.518 14.8857 307.02 14.8857C305.502 14.8857 304.671 14.5747 304.684 13.8955ZM317.239 6.18945V5.21191H315.602V6.26562C315.595 7.87793 314.745 9.42676 312.771 10.0615L313.621 11.3564C315.011 10.8867 315.944 9.94092 316.452 8.73486C316.941 9.77588 317.785 10.5693 319.029 11.001L319.88 9.73145C318.026 9.16016 317.233 7.73193 317.239 6.18945ZM314.688 13.9336C314.688 15.3618 316.198 16.1743 318.661 16.168C321.13 16.1743 322.641 15.3618 322.647 13.9336C322.641 12.5117 321.13 11.6802 318.661 11.6865C316.198 11.6802 314.688 12.5117 314.688 13.9336ZM316.3 13.9336C316.3 13.2734 317.131 12.9434 318.661 12.9434C320.197 12.9434 321.029 13.2734 321.035 13.9336C321.029 14.5747 320.197 14.9111 318.661 14.9111C317.131 14.9111 316.3 14.5747 316.3 13.9336ZM318.826 8.05566H320.997V11.3818H322.609V4.61523H320.997V6.73535H318.826V8.05566ZM330.607 5.77051H324.615V7.06543H328.995C328.982 8.0874 328.957 9.3252 328.69 11.001L330.29 11.1279C330.595 9.20459 330.595 7.78271 330.607 6.69727V5.77051ZM324.006 12.5117L324.158 13.8066C326.183 13.8193 328.798 13.7749 331.179 13.375L331.077 12.1689C330.011 12.3086 328.862 12.3911 327.726 12.4355V9.08398H326.126V12.4863C325.377 12.5054 324.653 12.5117 324.006 12.5117ZM331.623 16.168H333.261V10.6074H334.835V9.26172H333.261V4.61523H331.623V16.168ZM297.98 34.5146H293.499V31.9375H291.874V34.5146H287.405V35.8223H297.98V34.5146ZM287.837 31.1631L288.472 32.4453C290.465 32.0835 291.95 31.0615 292.68 29.6714C293.429 31.0425 294.927 32.0264 296.952 32.3818L297.587 31.0996C295.111 30.7378 293.664 29.3223 293.537 27.7988H297.054V26.4912H288.281V27.7988H291.811C291.671 29.3286 290.236 30.7759 287.837 31.1631ZM308.353 25.6152H306.74V37.168H308.353V25.6152ZM298.691 33.9053L298.907 35.2256C300.964 35.2319 303.687 35.2065 306.22 34.7686L306.105 33.5752C305.179 33.6958 304.208 33.772 303.236 33.8164V32.896C304.506 32.6611 305.331 31.874 305.331 30.7949C305.331 29.5063 304.138 28.624 302.424 28.624C300.723 28.624 299.548 29.5063 299.555 30.7949C299.548 31.8804 300.374 32.6675 301.637 32.896V33.8735C300.583 33.8989 299.574 33.8989 298.691 33.9053ZM298.92 28.167H305.94V26.8975H303.249V25.666H301.637V26.8975H298.92V28.167ZM301.091 30.7949C301.084 30.1982 301.637 29.8618 302.424 29.8555C303.236 29.8618 303.782 30.1982 303.782 30.7949C303.782 31.4043 303.236 31.7344 302.424 31.7344C301.637 31.7344 301.084 31.4043 301.091 30.7949ZM322.038 25.6279H320.413V34.1338H322.038V30.2109H323.6V28.8779H322.038V25.6279ZM313.215 32.293H318.813V26.4404H317.188V28.1162H314.827V26.4404H313.215V32.293ZM314.548 36.9648H322.457V35.6699H316.16V33.2578H314.548V36.9648ZM314.827 31.0234V29.3604H317.188V31.0234H314.827ZM334.645 31.0234H324.107V32.293H334.645V31.0234ZM325.161 28.1289C325.161 29.5381 326.818 30.3887 329.376 30.3887C331.915 30.3887 333.572 29.5381 333.578 28.1289C333.572 26.7324 331.915 25.8628 329.376 25.8564C326.818 25.8628 325.161 26.7324 325.161 28.1289ZM325.313 35.0605C325.313 36.4253 326.831 37.187 329.363 37.1807C331.858 37.187 333.375 36.4253 333.388 35.0605C333.375 33.6958 331.858 32.9341 329.363 32.9404C326.831 32.9341 325.313 33.6958 325.313 35.0605ZM326.85 28.1289C326.837 27.4497 327.757 27.126 329.376 27.126C330.969 27.126 331.902 27.4497 331.902 28.1289C331.902 28.8018 330.969 29.1318 329.376 29.1318C327.757 29.1318 326.837 28.8018 326.85 28.1289ZM326.964 35.0605C326.958 34.4512 327.764 34.1655 329.363 34.1592C330.931 34.1655 331.756 34.4512 331.763 35.0605C331.756 35.6572 330.931 35.9429 329.363 35.9492C327.764 35.9429 326.958 35.6572 326.964 35.0605Z" fill="white"/>
<path d="M281.096 52.8086L284.409 58.2295V62H285.564V58.2295L288.891 52.8086H287.57L285.044 57.0742H284.93L282.403 52.8086H281.096ZM291.811 62.1396C293.683 62.146 294.94 60.7241 294.934 58.585C294.94 56.4331 293.683 55.0176 291.811 55.0176C289.932 55.0176 288.662 56.4331 288.662 58.585C288.662 60.7241 289.932 62.146 291.811 62.1396ZM289.754 58.585C289.76 57.2139 290.408 55.9824 291.811 55.9824C293.201 55.9824 293.842 57.2139 293.842 58.585C293.842 59.9624 293.201 61.1748 291.811 61.1748C290.408 61.1748 289.76 59.9624 289.754 58.585ZM300.723 59.1689C300.716 60.4575 299.739 61.0415 298.958 61.0352C298.076 61.0415 297.46 60.4004 297.46 59.4102V55.1064H296.368V59.4863C296.362 61.2383 297.295 62.0889 298.603 62.0889C299.637 62.0889 300.323 61.5303 300.646 60.832H300.723V62H301.802V55.1064H300.723V59.1689ZM306.448 53.8242H309.343V62H310.498V53.8242H313.38V52.8086H306.448V53.8242ZM318.179 59.1689C318.172 60.4575 317.195 61.0415 316.414 61.0352C315.532 61.0415 314.916 60.4004 314.916 59.4102V55.1064H313.824V59.4863C313.818 61.2383 314.751 62.0889 316.059 62.0889C317.093 62.0889 317.779 61.5303 318.103 60.832H318.179V62H319.258V55.1064H318.179V59.1689ZM321.149 62H322.203V60.9463H322.33C322.565 61.3271 323.016 62.146 324.336 62.1396C326.05 62.146 327.262 60.7622 327.269 58.5723C327.262 56.3887 326.05 55.0176 324.323 55.0176C322.978 55.0176 322.565 55.8301 322.33 56.1982H322.241V52.8086H321.149V62ZM322.216 58.5469C322.216 57.0171 322.901 55.9951 324.171 55.9951C325.504 55.9951 326.158 57.106 326.164 58.5469C326.158 60.0132 325.485 61.1621 324.171 61.1621C322.914 61.1621 322.216 60.0957 322.216 58.5469ZM331.585 62.1396C333.007 62.146 334.029 61.4351 334.353 60.3877H333.185C332.931 60.813 332.41 61.1748 331.585 61.1748C330.36 61.1748 329.509 60.375 329.452 58.915H334.454V58.458C334.46 55.9062 332.931 55.0176 331.483 55.0176C329.611 55.0176 328.36 56.4902 328.36 58.6104C328.36 60.7241 329.592 62.146 331.585 62.1396ZM329.458 57.9883C329.535 56.9219 330.29 55.9824 331.483 55.9824C332.62 55.9824 333.343 56.8394 333.35 57.9883H329.458Z" fill="white" fill-opacity="0.4"/>
<path d="M289.322 71.8086H288.192V78.9814H288.104L283.127 71.8086H282.022V81H283.165V73.8398H283.254L288.23 81H289.322V71.8086ZM290.884 79.0449C290.884 80.3906 291.925 81.1587 293.232 81.165C294.432 81.1587 295.061 80.5239 295.289 80.0605H295.34V81H296.419V76.4551C296.425 74.2842 294.73 74.0176 293.829 74.0176C292.306 74.0176 291.227 74.7856 291.087 75.8965H292.229C292.382 75.3696 292.909 74.9697 293.778 74.9697C294.819 74.9697 295.34 75.4775 295.34 76.3535V76.9121C295.029 76.9185 293.918 76.9819 293.474 77.0137C292.28 77.1025 290.884 77.4644 290.884 79.0449ZM291.976 79.0957C291.982 78.3403 292.61 77.9912 293.601 77.9277C293.931 77.9087 295.016 77.8262 295.34 77.8071V78.499C295.34 79.3687 294.654 80.1938 293.423 80.1875C292.585 80.1938 291.982 79.8257 291.976 79.0957ZM303.592 74.1064H302.398L300.52 79.5781H300.443L298.564 74.1064H297.371L299.91 81H301.04L303.592 74.1064ZM307.438 81.1396C308.86 81.146 309.882 80.4351 310.206 79.3877H309.038C308.784 79.813 308.264 80.1748 307.438 80.1748C306.213 80.1748 305.363 79.375 305.306 77.915H310.308V77.458C310.314 74.9062 308.784 74.0176 307.337 74.0176C305.464 74.0176 304.214 75.4902 304.214 77.6104C304.214 79.7241 305.445 81.146 307.438 81.1396ZM305.312 76.9883C305.388 75.9219 306.144 74.9824 307.337 74.9824C308.473 74.9824 309.197 75.8394 309.203 76.9883H305.312ZM311.729 81H312.821V76.6582C312.821 75.7314 313.558 75.0459 314.548 75.0459C314.833 75.0459 315.125 75.103 315.208 75.1221V74.0176C315.081 74.0049 314.802 73.9985 314.637 73.9922C313.824 73.9985 313.107 74.4619 312.859 75.1602H312.783V74.1064H311.729V81ZM319.169 72.8242H322.063V81H323.219V72.8242H326.101V71.8086H319.169V72.8242ZM328.043 71.8086H326.837L330.201 81H331.407L334.771 71.8086H333.565L330.849 79.5146H330.747L328.043 71.8086Z" fill="white" fill-opacity="0.4"/>
<path d="M274.469 100H275.611V97.042L276.754 95.7471L279.915 100H281.312L277.465 94.96L281.312 90.8086H279.813L275.726 95.3535H275.611V90.8086H274.469V100ZM282.949 100L283.87 97.4102H287.564L288.484 100H289.69L286.326 90.8086H285.12L281.756 100H282.949ZM284.219 96.4072L285.679 92.2939H285.755L287.215 96.4072H284.219ZM290.935 100H292.077V97.042L293.22 95.7471L296.381 100H297.777L293.931 94.96L297.777 90.8086H296.279L292.191 95.3535H292.077V90.8086H290.935V100ZM299.415 100L300.335 97.4102H304.03L304.95 100H306.156L302.792 90.8086H301.586L298.222 100H299.415ZM300.685 96.4072L302.145 92.2939H302.221L303.681 96.4072H300.685ZM314.738 95.4043C314.745 92.4971 313.031 90.6816 310.676 90.6816C308.314 90.6816 306.607 92.4971 306.613 95.4043C306.607 98.3115 308.314 100.127 310.676 100.127C313.031 100.127 314.745 98.3115 314.738 95.4043ZM307.718 95.4043C307.724 93.0303 309.013 91.748 310.676 91.748C312.339 91.748 313.627 93.0303 313.634 95.4043C313.627 97.772 312.339 99.0542 310.676 99.0605C309.013 99.0542 307.724 97.772 307.718 95.4043ZM319.169 91.8242H322.063V100H323.219V91.8242H326.101V90.8086H319.169V91.8242ZM328.043 90.8086H326.837L330.201 100H331.407L334.771 90.8086H333.565L330.849 98.5146H330.747L328.043 90.8086Z" fill="white" fill-opacity="0.4"/>
<path d="M259.146 294.669H253.813V295.977H254.537V299.252H253.598L253.763 300.572C255.216 300.579 257.571 300.534 259.361 300.191L259.272 298.985C258.993 299.023 258.701 299.062 258.396 299.087V295.977H259.146V294.669ZM255.743 304.965H263.919V303.67H257.368V301.309H255.743V304.965ZM256.022 299.227V295.977H256.949V299.188C256.638 299.201 256.327 299.214 256.022 299.227ZM259.717 301.994H261.24V298.287H262.091V302.375H263.627V293.628H262.091V296.967H261.24V293.831H259.717V301.994ZM270.812 294.263H265.557V299.95H266.471C268.788 299.944 270.063 299.88 271.46 299.595L271.32 298.3C270.083 298.547 269.003 298.611 267.169 298.617V295.558H270.812V294.263ZM266.902 305.041H274.672V300.763H266.902V305.041ZM268.527 303.746V302.058H273.085V303.746H268.527ZM270.254 297.589H273.06V300.293H274.672V293.615H273.06V296.281H270.254V297.589ZM285.844 293.615H284.206V305.193H285.844V293.615ZM276.513 298.541C276.506 301.08 277.795 302.667 279.572 302.667C281.312 302.667 282.606 301.08 282.606 298.541C282.606 296.021 281.312 294.428 279.572 294.428C277.795 294.428 276.506 296.021 276.513 298.541ZM278.074 298.541C278.068 296.827 278.671 295.888 279.572 295.888C280.448 295.888 281.039 296.827 281.045 298.541C281.039 300.261 280.448 301.201 279.572 301.194C278.671 301.201 278.068 300.261 278.074 298.541ZM297.231 294.25H290.884V295.545H293.251C293.175 296.853 292.28 298.141 290.439 298.668L291.252 299.938C292.623 299.519 293.575 298.649 294.096 297.557C294.623 298.56 295.543 299.354 296.863 299.734L297.676 298.478C295.873 297.982 294.991 296.77 294.915 295.545H297.231V294.25ZM292.344 305.041H300.075V300.369H298.463V301.448H293.943V300.369H292.344V305.041ZM293.943 303.746V302.705H298.463V303.746H293.943ZM298.45 299.887H300.075V293.615H298.45V299.887ZM312.174 298.858H301.637V300.166H306.093V301.017C304.042 301.163 302.843 301.886 302.843 303.086C302.843 304.425 304.36 305.174 306.893 305.168C309.387 305.174 310.904 304.425 310.917 303.086C310.904 301.893 309.711 301.169 307.705 301.023V300.166H312.174V298.858ZM302.106 297.157L302.64 298.427C304.83 298.224 306.283 297.392 306.893 296.275C307.508 297.398 308.975 298.217 311.158 298.427L311.729 297.157C309.533 296.967 308.359 296.186 308.08 295.38H311.222V294.11H302.602V295.38H305.718C305.426 296.18 304.246 296.967 302.106 297.157ZM304.493 303.086C304.487 302.502 305.293 302.223 306.893 302.21C308.46 302.223 309.286 302.502 309.292 303.086C309.286 303.645 308.46 303.949 306.893 303.949C305.293 303.949 304.487 303.645 304.493 303.086ZM319.753 298.312H315.297V295.926H319.689V294.644H313.685V299.607H315.881V301.556C314.846 301.582 313.843 301.582 312.923 301.575L313.113 302.896C315.284 302.896 317.912 302.876 320.438 302.489L320.312 301.309C319.41 301.404 318.458 301.467 317.506 301.505V299.607H319.753V298.312ZM320.972 305.193H322.584V293.615H320.972V305.193ZM333.489 296.764H327.027V294.021H325.415V298.033H333.489V296.764ZM324.095 300.547H334.67V299.277H324.095V300.547ZM325.313 304.914H333.565V303.619H326.938V301.486H325.313V304.914ZM271.688 314.615H270.089V318.69H267.943V315.504H266.356V318.31H263.982V315.504H262.37V323.451H267.943V319.998H270.089V326.193H271.688V314.615ZM263.982 322.156V319.579H266.356V322.156H263.982ZM283.749 323.451H273.174V324.771H283.749V323.451ZM273.605 320.48L274.24 321.775C276.24 321.42 277.719 320.392 278.449 319.001C279.198 320.36 280.696 321.356 282.721 321.712L283.355 320.43C280.747 320.036 279.287 318.513 279.293 316.9V316.888H282.822V315.593H274.05V316.888H277.592V316.9C277.585 318.513 276.132 320.093 273.605 320.48ZM291.011 318.106V317.891H292.902V316.57H290.998V315.009H289.487V316.57H287.57V317.891H289.487V318.106C289.475 319.903 288.846 321.788 287.202 322.728L288.116 323.946C289.164 323.35 289.855 322.309 290.255 321.09C290.662 322.213 291.354 323.146 292.395 323.68L293.296 322.486C291.626 321.617 291.011 319.846 291.011 318.106ZM293.423 325.635H294.959V320.379H295.937V326.168H297.485V314.615H295.937V319.059H294.959V314.78H293.423V325.635ZM304.874 315.415H299.275V321.09H300.266C302.735 321.103 304.208 321.064 305.852 320.798L305.687 319.528C304.227 319.77 302.938 319.795 300.9 319.795V318.868H304.531V317.611H300.9V316.71H304.874V315.415ZM300.405 323.972C300.405 325.368 301.91 326.174 304.379 326.168C306.823 326.174 308.365 325.368 308.378 323.972C308.365 322.588 306.823 321.782 304.379 321.775C301.91 321.782 300.405 322.588 300.405 323.972ZM302.018 323.972C302.018 323.356 302.83 323.026 304.379 323.032C305.909 323.026 306.753 323.356 306.753 323.972C306.753 324.613 305.909 324.937 304.379 324.937C302.83 324.937 302.018 324.613 302.018 323.972ZM306.689 321.623H308.314V314.628H306.689V321.623ZM322.038 314.628H320.413V323.134H322.038V319.211H323.6V317.878H322.038V314.628ZM313.215 321.293H318.813V315.44H317.188V317.116H314.827V315.44H313.215V321.293ZM314.548 325.965H322.457V324.67H316.16V322.258H314.548V325.965ZM314.827 320.023V318.36H317.188V320.023H314.827ZM334.645 320.023H324.107V321.293H334.645V320.023ZM325.161 317.129C325.161 318.538 326.818 319.389 329.376 319.389C331.915 319.389 333.572 318.538 333.578 317.129C333.572 315.732 331.915 314.863 329.376 314.856C326.818 314.863 325.161 315.732 325.161 317.129ZM325.313 324.061C325.313 325.425 326.831 326.187 329.363 326.181C331.858 326.187 333.375 325.425 333.388 324.061C333.375 322.696 331.858 321.934 329.363 321.94C326.831 321.934 325.313 322.696 325.313 324.061ZM326.85 317.129C326.837 316.45 327.757 316.126 329.376 316.126C330.969 316.126 331.902 316.45 331.902 317.129C331.902 317.802 330.969 318.132 329.376 318.132C327.757 318.132 326.837 317.802 326.85 317.129ZM326.964 324.061C326.958 323.451 327.764 323.166 329.363 323.159C330.931 323.166 331.756 323.451 331.763 324.061C331.756 324.657 330.931 324.943 329.363 324.949C327.764 324.943 326.958 324.657 326.964 324.061Z" fill="white"/>
<path d="M294.508 342.824H297.402V351H298.558V342.824H301.439V341.809H294.508V342.824ZM303.585 351H304.677L306.162 345.744H306.264L307.762 351H308.841L310.936 344.106H309.793L308.32 349.337H308.244L306.81 344.106H305.642L304.182 349.362H304.118L302.646 344.106H301.49L303.585 351ZM312.142 351H313.233V344.106H312.142V351ZM311.926 342.24C311.919 342.64 312.269 342.964 312.688 342.964C313.106 342.964 313.456 342.64 313.462 342.24C313.456 341.834 313.106 341.51 312.688 341.517C312.269 341.51 311.919 341.834 311.926 342.24ZM317.981 344.106H316.534V342.456H315.43V344.106H314.389V345.021H315.43V349.299C315.436 350.518 316.401 351.089 317.321 351.089C317.645 351.089 317.912 351.063 318.083 351.038V350.022C317.924 350.029 317.632 350.048 317.436 350.048C316.972 350.048 316.528 349.902 316.534 349.02V345.021H317.981V344.106ZM322.399 344.106H320.952V342.456H319.848V344.106H318.807V345.021H319.848V349.299C319.854 350.518 320.819 351.089 321.739 351.089C322.063 351.089 322.33 351.063 322.501 351.038V350.022C322.342 350.029 322.05 350.048 321.854 350.048C321.39 350.048 320.946 349.902 320.952 349.02V345.021H322.399V344.106ZM326.627 351.14C328.049 351.146 329.071 350.435 329.395 349.388H328.227C327.973 349.813 327.452 350.175 326.627 350.175C325.402 350.175 324.551 349.375 324.494 347.915H329.496V347.458C329.502 344.906 327.973 344.018 326.525 344.018C324.653 344.018 323.402 345.49 323.402 347.61C323.402 349.724 324.634 351.146 326.627 351.14ZM324.5 346.988C324.577 345.922 325.332 344.982 326.525 344.982C327.662 344.982 328.385 345.839 328.392 346.988H324.5ZM330.918 351H332.01V346.658C332.01 345.731 332.746 345.046 333.736 345.046C334.022 345.046 334.314 345.103 334.396 345.122V344.018C334.27 344.005 333.99 343.999 333.825 343.992C333.013 343.999 332.295 344.462 332.048 345.16H331.972V344.106H330.918V351Z" fill="white" fill-opacity="0.4"/>
<path d="M2.41211 294.72H0.787109V302.4H1.59961C3.08496 302.407 4.3291 302.356 5.75098 302.045L5.53516 300.687C4.44971 300.915 3.47217 300.991 2.41211 301.01V294.72ZM4.03711 298.579H6.34766V304.66H7.88379V293.831H6.34766V297.271H4.03711V298.579ZM8.83594 305.168H10.3594V293.615H8.83594V305.168ZM18.0908 294.567H12.2129V302.54H13.2031C15.2915 302.54 16.9482 302.489 18.7637 302.223L18.6113 300.915C16.9927 301.163 15.5835 301.232 13.8125 301.245V299.062H17.6084V297.792H13.8125V295.888H18.0908V294.567ZM19.6523 305.168H21.29V293.615H19.6523V305.168ZM32.3984 294.148H23.7783V295.443H26.9395C26.7427 296.402 25.562 297.379 23.2832 297.627L23.8672 298.909C26.0254 298.662 27.46 297.754 28.0693 296.548C28.6787 297.754 30.1196 298.662 32.2842 298.909L32.8809 297.627C30.6021 297.379 29.4023 296.408 29.2119 295.443H32.3984V294.148ZM22.8135 300.801H33.3506V299.506H22.8135V300.801ZM24.083 304.965H32.1572V303.67H25.708V301.55H24.083V304.965ZM37.7939 294.39C35.9722 294.383 34.5757 295.564 34.582 297.221C34.5757 298.884 35.9722 300.058 37.7939 300.064C39.6284 300.058 40.9868 298.884 40.9932 297.221C40.9868 295.564 39.6284 294.383 37.7939 294.39ZM34.0996 301.512L34.29 302.832C36.3086 302.832 39.0508 302.813 41.6152 302.312L41.4883 301.144C39.019 301.493 36.1626 301.518 34.0996 301.512ZM36.1943 297.221C36.188 296.319 36.8799 295.786 37.7939 295.786C38.7144 295.786 39.4126 296.319 39.4189 297.221C39.4126 298.135 38.7144 298.662 37.7939 298.655C36.8799 298.662 36.188 298.135 36.1943 297.221ZM42.1484 305.193H43.7607V293.615H42.1484V305.193ZM10.3594 314.615H8.83594V326.168H10.3594V314.615ZM0.203125 322.626L1.11719 323.769C2.76123 322.816 3.83398 321.674 4.49414 320.354H6.38574V325.66H7.89648V314.869H6.38574V319.071H4.99561C5.2749 318.119 5.39551 317.091 5.39551 315.986H0.837891V317.294H3.78955C3.56738 319.56 2.53906 321.242 0.203125 322.626ZM16.0723 317.23V315.504H14.4346V317.23C14.4282 319.471 13.4443 321.687 11.4258 322.537L12.4033 323.883C13.8125 323.242 14.7583 321.985 15.2788 320.423C15.8057 321.852 16.7197 323.007 18.04 323.604L18.9922 322.309C17.0308 321.477 16.0659 319.351 16.0723 317.23ZM19.6143 326.193H21.252V314.615H19.6143V326.193ZM32.1318 315.085H24.1084V316.367H30.5132C30.5005 317.008 30.4624 317.764 30.2783 318.703H22.8135V319.973H33.3887V318.703H31.9097C32.1382 317.542 32.1382 316.615 32.1318 315.872V315.085ZM24.0068 322.042H30.4814V322.804H24.0195V326.079H32.3984V324.835H25.6318V324.022H32.0811V320.785H24.0068V322.042ZM40.5488 315.771H34.5566V317.065H38.9365C38.9238 318.087 38.8984 319.325 38.6318 321.001L40.2314 321.128C40.5361 319.205 40.5361 317.783 40.5488 316.697V315.771ZM33.9473 322.512L34.0996 323.807C36.1245 323.819 38.7397 323.775 41.1201 323.375L41.0186 322.169C39.9521 322.309 38.8032 322.391 37.667 322.436V319.084H36.0674V322.486C35.3184 322.505 34.5947 322.512 33.9473 322.512ZM41.5645 326.168H43.2021V320.607H44.7764V319.262H43.2021V314.615H41.5645V326.168ZM53.2314 315.542H48.6865V320.925H49.499C51.2192 320.925 52.3745 320.874 53.7139 320.633L53.5615 319.325C52.5078 319.535 51.5493 319.604 50.2988 319.617V316.837H53.2314V315.542ZM49.6514 324.873L50.3115 326.13C52.146 325.838 53.4854 325.025 54.2026 323.934C54.9009 325.025 56.2402 325.838 58.0811 326.13L58.7539 324.873C56.2593 324.543 55.0024 323.235 55.0088 321.991V321.648H53.3838V321.991C53.3838 323.235 52.1206 324.543 49.6514 324.873ZM54.1582 321.179H55.6689V318.716H56.6719V322.22H58.208V314.615H56.6719V317.396H55.6689V314.806H54.1582V321.179ZM68.834 315.085H60.8105V316.367H67.2153C67.2026 317.008 67.1646 317.764 66.9805 318.703H59.5156V319.973H70.0908V318.703H68.6118C68.8403 317.542 68.8403 316.615 68.834 315.872V315.085ZM60.709 322.042H67.1836V322.804H60.7217V326.079H69.1006V324.835H62.334V324.022H68.7832V320.785H60.709V322.042ZM82.9131 314.628H81.2881V323.134H82.9131V319.211H84.4746V317.878H82.9131V314.628ZM74.0898 321.293H79.6885V315.44H78.0635V317.116H75.7021V315.44H74.0898V321.293ZM75.4229 325.965H83.332V324.67H77.0352V322.258H75.4229V325.965ZM75.7021 320.023V318.36H78.0635V320.023H75.7021ZM95.5195 320.023H84.9824V321.293H95.5195V320.023ZM86.0361 317.129C86.0361 318.538 87.6929 319.389 90.251 319.389C92.79 319.389 94.4468 318.538 94.4531 317.129C94.4468 315.732 92.79 314.863 90.251 314.856C87.6929 314.863 86.0361 315.732 86.0361 317.129ZM86.1885 324.061C86.1885 325.425 87.7056 326.187 90.2383 326.181C92.7329 326.187 94.25 325.425 94.2627 324.061C94.25 322.696 92.7329 321.934 90.2383 321.94C87.7056 321.934 86.1885 322.696 86.1885 324.061ZM87.7246 317.129C87.7119 316.45 88.6323 316.126 90.251 316.126C91.8442 316.126 92.7773 316.45 92.7773 317.129C92.7773 317.802 91.8442 318.132 90.251 318.132C88.6323 318.132 87.7119 317.802 87.7246 317.129ZM87.8389 324.061C87.8325 323.451 88.6387 323.166 90.2383 323.159C91.8062 323.166 92.6313 323.451 92.6377 324.061C92.6313 324.657 91.8062 324.943 90.2383 324.949C88.6387 324.943 87.8325 324.657 87.8389 324.061Z" fill="white"/>
<path d="M1.01562 351H4.35449C6.52539 351 7.43311 349.94 7.43945 348.562C7.43311 347.103 6.43018 346.315 5.57324 346.265V346.176C6.37305 345.954 7.07764 345.427 7.07129 344.246C7.07764 342.894 6.16992 341.809 4.24023 341.809H1.01562V351ZM2.1582 349.984V346.823H4.40527C5.58594 346.823 6.34131 347.617 6.33496 348.55C6.34131 349.35 5.78271 349.984 4.3418 349.984H2.1582ZM2.1582 345.833V342.824H4.24023C5.43994 342.824 5.97949 343.459 5.97949 344.259C5.97949 345.217 5.19873 345.839 4.20215 345.833H2.1582ZM10.0166 341.809H8.9248V351H10.0166V341.809ZM14.5742 351.14C16.4468 351.146 17.7036 349.724 17.6973 347.585C17.7036 345.433 16.4468 344.018 14.5742 344.018C12.6953 344.018 11.4258 345.433 11.4258 347.585C11.4258 349.724 12.6953 351.146 14.5742 351.14ZM12.5176 347.585C12.5239 346.214 13.1714 344.982 14.5742 344.982C15.9644 344.982 16.6055 346.214 16.6055 347.585C16.6055 348.962 15.9644 350.175 14.5742 350.175C13.1714 350.175 12.5239 348.962 12.5176 347.585ZM21.9248 353.729C23.6069 353.729 24.9146 352.968 24.9209 351.19V344.106H23.8545V345.198H23.7656C23.5181 344.83 23.0864 344.018 21.7471 344.018C20.0142 344.018 18.8018 345.338 18.8018 347.458C18.8018 349.629 20.0586 350.892 21.7344 350.898C23.0674 350.892 23.5054 350.111 23.7402 349.73H23.8291V351.127C23.8291 352.263 23.1055 352.777 21.9248 352.777C20.9473 352.777 20.2935 352.428 20.1475 351.724H19.0049C19.1255 353 20.2554 353.729 21.9248 353.729ZM19.9062 347.496C19.9062 346.106 20.5601 344.995 21.8867 344.995C23.1689 344.995 23.8481 346.017 23.8545 347.496C23.8481 349.013 23.1499 349.921 21.8867 349.921C20.5791 349.921 19.9062 348.924 19.9062 347.496ZM30.6465 341.809H29.2881L32.2461 346.404L29.2881 351H30.6338L32.9824 347.28H33.0586L35.4072 351H36.7529L33.8711 346.404L36.7529 341.809H35.4072L33.0586 345.604H32.9824L30.6465 341.809ZM41.1328 351H47.0996V349.984H42.7197V349.908L44.8271 347.737C46.4521 346.062 46.9282 345.262 46.9346 344.233C46.9282 342.805 45.7476 341.682 44.0781 341.682C42.415 341.682 41.1582 342.773 41.1709 344.398H42.25C42.2563 343.37 42.9419 342.678 44.04 342.672C45.0747 342.678 45.8618 343.288 45.8682 344.233C45.8618 345.084 45.3413 345.706 44.2559 346.861L41.1201 350.162L41.1328 351Z" fill="white" fill-opacity="0.4"/>
<path d="M7.28711 363.703H8.42969C8.08691 361.792 6.58252 360.682 4.72266 360.682C2.36133 360.682 0.653809 362.497 0.660156 365.404C0.653809 368.312 2.36133 370.127 4.72266 370.127C6.58887 370.127 8.09961 368.997 8.42969 367.118H7.28711C7.01416 368.375 5.93506 369.054 4.72266 369.061C3.05957 369.054 1.771 367.772 1.76465 365.404C1.771 363.03 3.05957 361.748 4.72266 361.748C5.93506 361.748 7.02051 362.434 7.28711 363.703ZM9.55957 368.045C9.55957 369.391 10.6006 370.159 11.9082 370.165C13.1079 370.159 13.7363 369.524 13.9648 369.061H14.0156V370H15.0947V365.455C15.1011 363.284 13.4062 363.018 12.5049 363.018C10.9814 363.018 9.90234 363.786 9.7627 364.896H10.9053C11.0576 364.37 11.5845 363.97 12.4541 363.97C13.4951 363.97 14.0156 364.478 14.0156 365.354V365.912C13.7046 365.918 12.5938 365.982 12.1494 366.014C10.9561 366.103 9.55957 366.464 9.55957 368.045ZM10.6514 368.096C10.6577 367.34 11.2861 366.991 12.2764 366.928C12.6064 366.909 13.6919 366.826 14.0156 366.807V367.499C14.0156 368.369 13.3301 369.194 12.0986 369.188C11.2607 369.194 10.6577 368.826 10.6514 368.096ZM19.9316 363.106H18.4082V362.408C18.4019 361.697 18.7446 361.38 19.5127 361.38C19.6523 361.38 19.8491 361.393 20.084 361.431V360.453C19.8555 360.409 19.5381 360.377 19.2715 360.377C18.0527 360.377 17.3101 361.05 17.3037 362.167V363.106H16.1992V364.021H17.3037V370H18.4082V364.021H19.9316V363.106ZM23.8291 370.14C25.251 370.146 26.2729 369.435 26.5967 368.388H25.4287C25.1748 368.813 24.6543 369.175 23.8291 369.175C22.604 369.175 21.7534 368.375 21.6963 366.915H26.6982V366.458C26.7046 363.906 25.1748 363.018 23.7275 363.018C21.855 363.018 20.6045 364.49 20.6045 366.61C20.6045 368.724 21.8359 370.146 23.8291 370.14ZM21.7026 365.988C21.7788 364.922 22.5342 363.982 23.7275 363.982C24.8638 363.982 25.5874 364.839 25.5938 365.988H21.7026ZM23.1816 362.167H24.1211L25.5303 360.085H24.2734L23.1816 362.167ZM32.1064 360.809H30.748L33.7061 365.404L30.748 370H32.0938L34.4424 366.28H34.5186L36.8672 370H38.2129L35.3311 365.404L38.2129 360.809H36.8672L34.5186 364.604H34.4424L32.1064 360.809ZM42.5928 370H48.5596V368.984H44.1797V368.908L46.2871 366.737C47.9121 365.062 48.3882 364.262 48.3945 363.233C48.3882 361.805 47.2075 360.682 45.5381 360.682C43.875 360.682 42.6182 361.773 42.6309 363.398H43.71C43.7163 362.37 44.4019 361.678 45.5 361.672C46.5347 361.678 47.3218 362.288 47.3281 363.233C47.3218 364.084 46.8013 364.706 45.7158 365.861L42.5801 369.162L42.5928 370Z" fill="white" fill-opacity="0.4"/>
<path d="M7.28711 382.703H8.42969C8.08691 380.792 6.58252 379.682 4.72266 379.682C2.36133 379.682 0.653809 381.497 0.660156 384.404C0.653809 387.312 2.36133 389.127 4.72266 389.127C6.58887 389.127 8.09961 387.997 8.42969 386.118H7.28711C7.01416 387.375 5.93506 388.054 4.72266 388.061C3.05957 388.054 1.771 386.772 1.76465 384.404C1.771 382.03 3.05957 380.748 4.72266 380.748C5.93506 380.748 7.02051 381.434 7.28711 382.703ZM12.708 389.14C14.5806 389.146 15.8374 387.724 15.8311 385.585C15.8374 383.433 14.5806 382.018 12.708 382.018C10.8291 382.018 9.55957 383.433 9.55957 385.585C9.55957 387.724 10.8291 389.146 12.708 389.14ZM10.6514 385.585C10.6577 384.214 11.3052 382.982 12.708 382.982C14.0981 382.982 14.7393 384.214 14.7393 385.585C14.7393 386.962 14.0981 388.175 12.708 388.175C11.3052 388.175 10.6577 386.962 10.6514 385.585ZM17.2656 389H18.3574V384.696C18.3574 383.693 19.0811 382.995 19.9062 382.995C20.6997 382.995 21.2583 383.516 21.252 384.29V389H22.3564V384.519C22.3628 383.643 22.9087 382.995 23.8672 382.995C24.6226 382.995 25.2573 383.389 25.2637 384.404V389H26.3555V384.392C26.3555 382.767 25.4731 382.018 24.248 382.018C23.2578 382.018 22.5278 382.475 22.1787 383.186H22.1025C21.7788 382.449 21.1631 382.018 20.2617 382.018C19.3604 382.018 18.6938 382.449 18.4082 383.186H18.3193V382.106H17.2656V389ZM28.1074 389H29.1992V384.696C29.1992 383.693 29.9229 382.995 30.748 382.995C31.5415 382.995 32.1001 383.516 32.0938 384.29V389H33.1982V384.519C33.2046 383.643 33.7505 382.995 34.709 382.995C35.4644 382.995 36.0991 383.389 36.1055 384.404V389H37.1973V384.392C37.1973 382.767 36.3149 382.018 35.0898 382.018C34.0996 382.018 33.3696 382.475 33.0205 383.186H32.9443C32.6206 382.449 32.0049 382.018 31.1035 382.018C30.2021 382.018 29.5356 382.449 29.25 383.186H29.1611V382.106H28.1074V389ZM43.3037 386.169C43.2974 387.458 42.3198 388.042 41.5391 388.035C40.6567 388.042 40.041 387.4 40.041 386.41V382.106H38.9492V386.486C38.9429 388.238 39.876 389.089 41.1836 389.089C42.2183 389.089 42.9038 388.53 43.2275 387.832H43.3037V389H44.3828V382.106H43.3037V386.169ZM47.2266 384.861C47.2266 383.668 47.9629 382.995 48.9658 382.995C49.9434 382.995 50.5273 383.63 50.5273 384.696V389H51.6191V384.62C51.6255 382.868 50.6924 382.018 49.2959 382.018C48.2485 382.018 47.6011 382.481 47.2773 383.186H47.1885V382.106H46.1348V389H47.2266V384.861ZM53.3711 389H54.4629V382.106H53.3711V389ZM53.1553 380.24C53.1489 380.64 53.498 380.964 53.917 380.964C54.3359 380.964 54.6851 380.64 54.6914 380.24C54.6851 379.834 54.3359 379.51 53.917 379.517C53.498 379.51 53.1489 379.834 53.1553 380.24ZM59.2109 382.106H57.7637V380.456H56.6592V382.106H55.6182V383.021H56.6592V387.299C56.6655 388.518 57.6304 389.089 58.5508 389.089C58.8745 389.089 59.1411 389.063 59.3125 389.038V388.022C59.1538 388.029 58.8618 388.048 58.665 388.048C58.2017 388.048 57.7573 387.902 57.7637 387.02V383.021H59.2109V382.106ZM61.3184 391.59C62.2959 391.583 62.9688 391.076 63.375 389.99L66.2949 382.106H65.1016L63.2227 387.578H63.1465L61.2676 382.106H60.0742L62.626 389.051L62.4229 389.571C62.061 390.581 61.6865 390.606 61.2422 390.612C61.0708 390.606 60.8232 390.6 60.709 390.587V391.564C60.8486 391.577 61.0835 391.583 61.3184 391.59ZM71.4873 379.809H70.1289L73.0869 384.404L70.1289 389H71.4746L73.8232 385.28H73.8994L76.248 389H77.5938L74.7119 384.404L77.5938 379.809H76.248L73.8994 383.604H73.8232L71.4873 379.809ZM85.2236 379.809H84.0684L81.7832 381.332V382.487L84.0176 381.002H84.0684V389H85.2236V379.809ZM90.6826 389.127C92.7202 389.127 93.8945 387.413 93.8945 384.404C93.8945 381.421 92.7012 379.682 90.6826 379.682C88.6577 379.682 87.4644 381.421 87.4707 384.404C87.4644 387.413 88.645 389.127 90.6826 389.127ZM88.5752 384.404C88.5815 382.024 89.3623 380.678 90.6826 380.672C92.0029 380.678 92.7837 382.024 92.7773 384.404C92.7837 386.785 92.0093 388.111 90.6826 388.111C89.3496 388.111 88.5815 386.785 88.5752 384.404Z" fill="white" fill-opacity="0.4"/>
<path d="M173 55C239.274 55 293 108.726 293 175V180H173V55Z" fill="#60BAF1"/>
<path d="M194.919 153.008H196.849C196.595 150.894 194.995 149.682 192.875 149.682C190.45 149.682 188.597 151.402 188.597 154.404C188.597 157.394 190.418 159.127 192.875 159.127C195.211 159.127 196.639 157.578 196.849 155.877L194.919 155.864C194.735 156.861 193.948 157.432 192.9 157.438C191.498 157.432 190.539 156.385 190.539 154.404C190.539 152.468 191.485 151.376 192.913 151.37C193.986 151.376 194.767 151.992 194.919 153.008ZM198.182 159H204.047V157.426H200.086V149.809H198.182V159ZM207.183 149.809H205.278V159H207.183V149.809ZM208.731 159H210.636V156.004H212.286C214.406 156.004 215.625 154.741 215.625 152.906C215.625 151.097 214.425 149.809 212.337 149.809H208.731V159ZM210.636 154.468V151.37H211.981C213.111 151.376 213.664 151.992 213.657 152.906C213.664 153.833 213.111 154.468 211.981 154.468H210.636Z" fill="white"/>
<path d="M173 262C211.108 262 242 231.108 242 193L242 190L173 190L173 262Z" fill="#099BF5"/>
<path d="M193.764 213.437H195.592C195.566 211.812 194.227 210.682 192.189 210.682C190.177 210.682 188.705 211.792 188.711 213.462C188.711 214.808 189.663 215.582 191.212 215.963L192.215 216.204C193.218 216.452 193.789 216.744 193.789 217.372C193.789 218.058 193.142 218.527 192.139 218.527C191.123 218.527 190.387 218.058 190.323 217.131H188.47C188.527 219.105 189.942 220.133 192.164 220.127C194.405 220.133 195.712 219.054 195.719 217.372C195.712 215.842 194.538 215.042 192.964 214.681L192.139 214.478C191.345 214.3 190.66 214.001 190.666 213.335C190.672 212.726 191.212 212.281 192.177 212.281C193.11 212.281 193.688 212.707 193.764 213.437ZM204.631 210.809H202.739V216.648H202.65L198.639 210.809H196.963V220H198.867V214.16H198.943L202.98 220H204.631V210.809ZM211.169 213.437H212.997C212.972 211.812 211.632 210.682 209.595 210.682C207.583 210.682 206.11 211.792 206.116 213.462C206.116 214.808 207.068 215.582 208.617 215.963L209.62 216.204C210.623 216.452 211.194 216.744 211.194 217.372C211.194 218.058 210.547 218.527 209.544 218.527C208.528 218.527 207.792 218.058 207.729 217.131H205.875C205.932 219.105 207.348 220.133 209.569 220.127C211.81 220.133 213.118 219.054 213.124 217.372C213.118 215.842 211.943 215.042 210.369 214.681L209.544 214.478C208.75 214.3 208.065 214.001 208.071 213.335C208.078 212.726 208.617 212.281 209.582 212.281C210.515 212.281 211.093 212.707 211.169 213.437Z" fill="white"/>
<path d="M163 315C96.7258 315 43 261.274 43 195L43 190L163 190L163 315Z" fill="#0B5FC1"/>
<path d="M122.387 210.809H120.254L123.44 220H125.891L129.064 210.809H126.957L124.71 217.816H124.621L122.387 210.809ZM138.002 215.404C138.002 212.402 136.142 210.682 133.711 210.682C131.261 210.682 129.407 212.402 129.407 215.404C129.407 218.394 131.261 220.127 133.711 220.127C136.142 220.127 138.002 218.407 138.002 215.404ZM131.35 215.404C131.35 213.437 132.283 212.376 133.711 212.37C135.126 212.376 136.066 213.437 136.06 215.404C136.066 217.366 135.126 218.432 133.711 218.438C132.283 218.432 131.35 217.366 131.35 215.404ZM147.041 210.809H145.149V216.648H145.061L141.049 210.809H139.373V220H141.277V214.16H141.354L145.391 220H147.041V210.809Z" fill="white"/>
<path d="M97.79 234.128C97.7964 236.394 98.4058 238.279 99.5039 239.879H100.481C99.6182 238.692 98.9263 236.267 98.9199 234.128C98.9263 231.995 99.6182 229.57 100.481 228.39H99.5039C98.4058 229.983 97.7964 231.868 97.79 234.128ZM102.411 228.809H101.205L104.569 238H105.775L109.14 228.809H107.934L105.217 236.515H105.115L102.411 228.809ZM112.402 238.14C114.275 238.146 115.532 236.724 115.525 234.585C115.532 232.433 114.275 231.018 112.402 231.018C110.523 231.018 109.254 232.433 109.254 234.585C109.254 236.724 110.523 238.146 112.402 238.14ZM110.346 234.585C110.352 233.214 111 231.982 112.402 231.982C113.792 231.982 114.434 233.214 114.434 234.585C114.434 235.962 113.792 237.175 112.402 237.175C111 237.175 110.352 235.962 110.346 234.585ZM116.96 238H118.052V231.106H116.96V238ZM116.744 229.24C116.738 229.64 117.087 229.964 117.506 229.964C117.925 229.964 118.274 229.64 118.28 229.24C118.274 228.834 117.925 228.51 117.506 228.517C117.087 228.51 116.738 228.834 116.744 229.24ZM122.609 238.14C124.139 238.146 125.155 237.2 125.326 235.969H124.234C124.044 236.724 123.422 237.162 122.609 237.162C121.359 237.162 120.559 236.14 120.553 234.547C120.559 232.998 121.378 231.982 122.609 231.982C123.53 231.982 124.076 232.56 124.234 233.188H125.326C125.155 231.887 124.05 231.018 122.584 231.018C120.711 231.018 119.461 232.49 119.461 234.585C119.461 236.654 120.654 238.146 122.609 238.14ZM129.566 238.14C130.988 238.146 132.01 237.435 132.334 236.388H131.166C130.912 236.813 130.392 237.175 129.566 237.175C128.341 237.175 127.491 236.375 127.434 234.915H132.436V234.458C132.442 231.906 130.912 231.018 129.465 231.018C127.592 231.018 126.342 232.49 126.342 234.61C126.342 236.724 127.573 238.146 129.566 238.14ZM127.44 233.988C127.516 232.922 128.271 231.982 129.465 231.982C130.601 231.982 131.325 232.839 131.331 233.988H127.44ZM139.938 238.14C141.811 238.146 143.068 236.724 143.062 234.585C143.068 232.433 141.811 231.018 139.938 231.018C138.06 231.018 136.79 232.433 136.79 234.585C136.79 236.724 138.06 238.146 139.938 238.14ZM137.882 234.585C137.888 233.214 138.536 231.982 139.938 231.982C141.329 231.982 141.97 233.214 141.97 234.585C141.97 235.962 141.329 237.175 139.938 237.175C138.536 237.175 137.888 235.962 137.882 234.585ZM147.581 231.106H146.058V230.408C146.051 229.697 146.394 229.38 147.162 229.38C147.302 229.38 147.499 229.393 147.733 229.431V228.453C147.505 228.409 147.188 228.377 146.921 228.377C145.702 228.377 144.959 229.05 144.953 230.167V231.106H143.849V232.021H144.953V238H146.058V232.021H147.581V231.106ZM107.235 243.809H106.105V250.981H106.017L101.04 243.809H99.9355V253H101.078V245.84H101.167L106.144 253H107.235V243.809ZM112.021 253.14C113.443 253.146 114.465 252.435 114.789 251.388H113.621C113.367 251.813 112.847 252.175 112.021 252.175C110.796 252.175 109.946 251.375 109.889 249.915H114.891V249.458C114.897 246.906 113.367 246.018 111.92 246.018C110.047 246.018 108.797 247.49 108.797 249.61C108.797 251.724 110.028 253.146 112.021 253.14ZM109.895 248.988C109.971 247.922 110.727 246.982 111.92 246.982C113.056 246.982 113.78 247.839 113.786 248.988H109.895ZM119.321 246.106H117.874V244.456H116.77V246.106H115.729V247.021H116.77V251.299C116.776 252.518 117.741 253.089 118.661 253.089C118.985 253.089 119.251 253.063 119.423 253.038V252.022C119.264 252.029 118.972 252.048 118.775 252.048C118.312 252.048 117.868 251.902 117.874 251.02V247.021H119.321V246.106ZM120.73 253H121.822V246.106H120.73V253ZM120.515 244.24C120.508 244.64 120.857 244.964 121.276 244.964C121.695 244.964 122.044 244.64 122.051 244.24C122.044 243.834 121.695 243.51 121.276 243.517C120.857 243.51 120.508 243.834 120.515 244.24ZM123.358 253H128.779V251.997H124.882V251.921L128.652 246.97V246.106H123.485V247.109H127.243V247.186L123.358 252.175V253ZM132.918 253.14C134.34 253.146 135.362 252.435 135.686 251.388H134.518C134.264 251.813 133.743 252.175 132.918 252.175C131.693 252.175 130.842 251.375 130.785 249.915H135.787V249.458C135.793 246.906 134.264 246.018 132.816 246.018C130.944 246.018 129.693 247.49 129.693 249.61C129.693 251.724 130.925 253.146 132.918 253.14ZM130.792 248.988C130.868 247.922 131.623 246.982 132.816 246.982C133.953 246.982 134.676 247.839 134.683 248.988H130.792ZM138.301 248.861C138.301 247.668 139.037 246.995 140.04 246.995C141.018 246.995 141.602 247.63 141.602 248.696V253H142.693V248.62C142.7 246.868 141.767 246.018 140.37 246.018C139.323 246.018 138.675 246.481 138.352 247.186H138.263V246.106H137.209V253H138.301V248.861ZM146.756 249.128C146.75 246.862 146.14 244.977 145.042 243.377H144.064C144.928 244.564 145.62 246.989 145.626 249.128C145.62 251.261 144.928 253.686 144.064 254.866H145.042C146.14 253.273 146.75 251.388 146.756 249.128Z" fill="white"/>
<path d="M163 76C107.772 76 63 120.772 63 176V180H163V76Z" fill="#5975A3"/>
<path d="M118.442 149.809H116.551V155.648H116.462L112.45 149.809H110.774V159H112.679V153.16H112.755L116.792 159H118.442V149.809ZM119.991 159H126.174V157.426H121.896V155.191H125.844V153.617H121.896V151.383H126.161V149.809H119.991V159ZM129.703 159H131.569L133.334 152.932H133.41L135.162 159H137.028L139.656 149.809H137.574L136.025 156.245H135.949L134.261 149.809H132.471L130.782 156.232H130.706L129.157 149.809H127.075L129.703 159ZM145.534 152.437H147.362C147.337 150.812 145.998 149.682 143.96 149.682C141.948 149.682 140.475 150.792 140.481 152.462C140.481 153.808 141.434 154.582 142.982 154.963L143.985 155.204C144.988 155.452 145.56 155.744 145.56 156.372C145.56 157.058 144.912 157.527 143.909 157.527C142.894 157.527 142.157 157.058 142.094 156.131H140.24C140.297 158.105 141.713 159.133 143.935 159.127C146.175 159.133 147.483 158.054 147.489 156.372C147.483 154.842 146.309 154.042 144.734 153.681L143.909 153.478C143.116 153.3 142.43 153.001 142.437 152.335C142.443 151.726 142.982 151.281 143.947 151.281C144.88 151.281 145.458 151.707 145.534 152.437Z" fill="white"/>
</svg>
