<svg width="123" height="77" viewBox="0 0 123 77" fill="none" xmlns="http://www.w3.org/2000/svg">
<rect width="123" height="77" fill="#212936"/>
<path d="M35.9399 55.4137H44.9718V41.8659H58.4245V34.5453H44.9718V28.3181H59.9457V20.9976H35.9399V55.4137Z" fill="#099BF5"/>
<path d="M71.3543 29.6016H62.3225L69.2627 42.4839L61.8946 55.4137H70.9265L75.2523 47.0949L79.7207 55.4137H88.6099L81.2894 42.4839L88.2772 29.6016H79.3404L75.2523 37.7303L71.3543 29.6016Z" fill="#099BF5"/>
<path d="M84.1506 33.5829L75.3003 29.1577L83.4131 24.7325L84.1506 33.5829Z" fill="#20E24B"/>
<path d="M82.696 23.2575L83.0676 22.0302H85.1635L85.5395 23.2575H87.3113L85.237 17H82.9985L80.9155 23.2575H82.696ZM83.4479 20.7856L84.0875 18.6854H84.1393L84.7832 20.7856H83.4479Z" fill="#20E24B"/>
<path d="M90.3104 23.2575C92.2205 23.2575 93.4218 22.082 93.4218 20.1287C93.4218 18.1711 92.2205 17 90.2931 17H87.9336V23.2575H90.3104ZM89.5757 21.8573V18.4002H90.2067C91.2136 18.4002 91.7624 18.8064 91.7624 20.1287C91.7624 21.4468 91.2136 21.8573 90.2499 21.8573H89.5757Z" fill="#20E24B"/>
<path fill-rule="evenodd" clip-rule="evenodd" d="M82.9339 29.1577L68.7321 55.7088H65.0593L79.2611 29.1577H82.9339Z" fill="#20E24B"/>
</svg>
