<svg width="123" height="78" viewBox="0 0 123 78" fill="none" xmlns="http://www.w3.org/2000/svg">
<rect y="0.5" width="123" height="77" fill="#212936"/>
<path d="M18.4297 47H21.9453V39.9688H28.8828V37.0625H21.9453V32.9375H29.6094V30.0312H18.4297V47ZM42.4297 30.0312V40.7656C42.4414 42.7227 41.0586 44.1289 38.9375 44.1406C36.8398 44.1289 35.457 42.7227 35.4453 40.7656V30.0312H31.9297V41.0469C31.9297 44.7617 34.7188 47.2461 38.9375 47.2344C43.1445 47.2461 45.9688 44.7617 45.9688 41.0469V30.0312H42.4297ZM62.9844 30.0312H59.4922V40.8125H59.3281L51.9219 30.0312H48.8281V47H52.3438V36.2188H52.4844L59.9375 47H62.9844V30.0312ZM70.4609 47.2109C72.5352 47.2109 73.5898 46.0156 74.0703 44.9609H74.2344V47H77.6562V30.0312H74.1875V36.4062H74.0703C73.6133 35.375 72.5938 34.1094 70.4609 34.1094C67.6484 34.1094 65.2812 36.2891 65.2812 40.6484C65.2812 44.9023 67.5547 47.2109 70.4609 47.2109ZM68.8438 40.625C68.832 38.4102 69.7695 36.875 71.5391 36.875C73.2852 36.875 74.2578 38.3398 74.2578 40.625C74.2578 42.9219 73.2734 44.4336 71.5391 44.4453C69.7812 44.4336 68.832 42.875 68.8438 40.625ZM86.2109 47.2578C89.3516 47.2461 91.4609 45.7227 91.9531 43.3672H88.6484C88.3086 44.1289 87.4648 44.6445 86.2812 44.6562C84.4883 44.6445 83.3516 43.4609 83.3516 41.5391H92.0469V40.5547C92.0469 36.2188 89.4102 34.1094 86.0703 34.1094C82.3438 34.1094 79.918 36.7695 79.9297 40.6953C79.918 44.7266 82.3086 47.2461 86.2109 47.2578ZM83.3516 39.3594C83.4219 37.8945 84.5469 36.6992 86.1406 36.7109C87.6875 36.6992 88.7539 37.8125 88.7656 39.3594H83.3516ZM96.8984 34.2734H93.3125L96.9688 40.625L93.1719 47H96.7812L99.2656 42.5703L101.797 47H105.359L101.539 40.625L105.266 34.2734H101.68L99.2656 38.75L96.8984 34.2734Z" fill="#099BF5"/>
</svg>
