<svg width="123" height="77" viewBox="0 0 123 77" fill="none" xmlns="http://www.w3.org/2000/svg">
<rect width="123" height="77" fill="#212936"/>
<path d="M21.302 25.26H24.48L19.762 19.016L24.242 13.85H21.12L16.556 19.226V13.85H14.008V25.26H16.556V22.698L18.11 20.906L21.302 25.26ZM35.5602 19.464V18.316H38.1922V18.946H40.5442V13.5H29.9042V15.432H38.1922V16.426H29.9042V18.316H33.1802V19.464H29.1762V21.41H41.2722V19.464H35.5602ZM32.2842 22.012H29.8762V25.456H40.7122V23.51H32.2842V22.012ZM54.543 13.5H52.331V22.516H54.543V13.5ZM49.321 22.306H51.505V13.556H49.321V15.964H48.383V18.106H49.321V22.306ZM48.761 20.766V18.876C48.131 19.114 47.081 19.268 46.003 19.268H45.051V18.302H47.823V16.482H45.051V15.558H48.103V13.64H42.853V21.186H45.863C46.983 21.186 48.131 21.032 48.761 20.766ZM45.947 23.328V21.774H43.539V25.456H54.683V23.328H45.947ZM62.1298 19.31L67.0578 21.578L68.0658 19.618L63.2358 17.518C63.3338 17.266 63.4038 17 63.4598 16.734H67.5898V14.564H63.3618V13.346H60.9258V14.564H56.7258V16.734H60.8838C60.3098 18.33 58.4618 19.338 56.4738 19.338V21.522C58.7558 21.522 60.8278 20.696 62.1298 19.31ZM56.1098 22.852V25.036H68.2058V22.852H56.1098ZM21.68 32.536H18.852V31.416H16.416V32.536H13.616V34.552H21.68V32.536ZM26.314 35.756H24.942V31.5H22.576V43.456H24.942V38.052H26.314V35.756ZM18.81 39.802C20.28 39.536 21.274 38.724 21.274 37.408C21.274 35.784 19.748 34.916 17.662 34.916C15.576 34.916 14.05 35.784 14.05 37.408C14.05 38.71 15.016 39.522 16.458 39.788V40.81H13.686V42.896H18.754C19.944 42.896 21.148 42.756 21.89 42.42V40.334C21.148 40.67 19.916 40.81 18.81 40.81V39.802ZM16.262 37.408C16.262 36.988 16.822 36.778 17.662 36.778C18.502 36.778 19.062 36.988 19.062 37.408C19.062 37.828 18.502 38.038 17.662 38.038C16.822 38.038 16.262 37.828 16.262 37.408ZM36.8408 31.5V43.456H39.0528V31.5H36.8408ZM33.8308 35.756H32.3048V37.982H33.8308V41.384L31.2128 36.848C31.3108 35.966 31.3668 34.986 31.3808 33.922H33.0608V31.78H27.3908V33.922H29.1408C29.0988 37.912 28.3568 40.418 27.1528 40.586V42.896C28.6928 42.84 29.8268 41.832 30.5268 39.914L32.0668 42.714L33.8308 41.734V43.246H36.0148V31.556H33.8308V35.756ZM49.8736 38.192H52.2396V31.5H49.8736V32.732H47.7176V34.846H49.8736V38.192ZM44.7776 35.868L47.6476 37.87L48.9496 36.246L45.7296 34.076C45.9956 33.334 46.1356 32.536 46.1356 31.696L43.7556 31.556C43.7136 33.964 42.4536 35.784 40.5916 36.008V38.136C42.3276 38.038 43.7836 37.17 44.7776 35.868ZM46.8916 38.36C43.8396 38.36 41.4316 39.032 41.4316 40.978C41.4316 42.924 43.8396 43.596 46.8916 43.596C49.9436 43.596 52.3516 42.924 52.3516 40.978C52.3516 39.032 49.9436 38.36 46.8916 38.36ZM46.8916 41.734C45.2816 41.734 43.9796 41.524 43.9796 40.978C43.9796 40.446 45.2816 40.222 46.8916 40.222C48.5016 40.222 49.8036 40.446 49.8036 40.978C49.8036 41.524 48.5016 41.734 46.8916 41.734Z" fill="white"/>
<rect x="67" y="57" width="12" height="20" fill="url(#paint0_linear_75_1373)"/>
<rect x="82" y="47" width="12" height="30" fill="url(#paint1_linear_75_1373)"/>
<rect x="97" y="50.6364" width="12" height="26.3636" fill="url(#paint2_linear_75_1373)"/>
<defs>
<linearGradient id="paint0_linear_75_1373" x1="73" y1="57" x2="73" y2="77" gradientUnits="userSpaceOnUse">
<stop stop-color="#099BF5"/>
<stop offset="1" stop-color="#124F87"/>
</linearGradient>
<linearGradient id="paint1_linear_75_1373" x1="88" y1="47" x2="88" y2="77" gradientUnits="userSpaceOnUse">
<stop stop-color="#099BF5"/>
<stop offset="1" stop-color="#124F87"/>
</linearGradient>
<linearGradient id="paint2_linear_75_1373" x1="103" y1="50.6364" x2="103" y2="77" gradientUnits="userSpaceOnUse">
<stop stop-color="#099BF5"/>
<stop offset="1" stop-color="#124F87"/>
</linearGradient>
</defs>
</svg>
