<svg width="123" height="77" viewBox="0 0 123 77" fill="none" xmlns="http://www.w3.org/2000/svg">
<g clip-path="url(#clip0_75_1346)">
<rect width="123" height="77" fill="#212936"/>
<rect x="81" y="48" width="13" height="14" rx="2" fill="white" fill-opacity="0.19"/>
<path d="M88.6035 51.9297H87.2168L85.4688 53.043V54.3418L87.0898 53.3262H87.1289V59H88.6035V51.9297Z" fill="white"/>
<rect x="98" y="50" width="63" height="10" rx="3" fill="url(#paint0_linear_75_1346)"/>
<rect x="81" y="64" width="13" height="14" rx="2" fill="white" fill-opacity="0.19"/>
<path d="M85.5566 75H90.6152V73.7891H87.5977V73.75L88.6719 72.7051C90.127 71.3867 90.5176 70.7275 90.5176 69.9219C90.5176 68.6963 89.5117 67.832 87.998 67.832C86.5088 67.832 85.4834 68.7158 85.4883 70.0977H86.8848C86.8799 69.4189 87.3145 68.999 87.9785 69.0039C88.6279 68.999 89.1016 69.3896 89.1016 70.0195C89.1016 70.5811 88.7451 70.9717 88.0859 71.6016L85.5469 73.9355L85.5566 75Z" fill="white"/>
<rect x="98" y="66" width="63" height="10" rx="3" fill="url(#paint1_linear_75_1346)"/>
<rect x="72" y="24" width="99" height="17" fill="#3CCB25"/>
<rect x="99" y="27" width="1" height="11" fill="white"/>
<circle cx="85" cy="32" r="4" stroke="white" stroke-width="2"/>
<path d="M87.5 35L90.5 38" stroke="white" stroke-width="2"/>
<rect y="38" width="123" height="39" fill="url(#paint2_linear_75_1346)"/>
<path d="M22.94 13.5V15.712H21.078C21.092 15.572 21.092 15.418 21.092 15.264V13.64H13.966V15.6H18.684V15.782C18.684 17.056 16.808 17.882 13.966 17.91V19.912C16.752 19.912 19.034 19.296 20.21 17.868H22.94V19.968H25.306V13.5H22.94ZM14.61 25.456H25.306V20.388H14.61V25.456ZM16.976 22.334H22.94V23.51H16.976V22.334ZM36.8408 13.5V15.824H35.7628V13.556H33.5788V18.792L31.2548 16.384C31.4508 15.572 31.5488 14.662 31.5488 13.682L29.3088 13.598C29.3088 16.552 28.3708 18.344 27.1248 18.498V20.668C28.4968 20.64 29.6448 19.856 30.4288 18.512L32.2768 20.528L33.5788 19.38V20.71H35.7628V18.036H36.8408V20.836H39.0528V13.5H36.8408ZM27.9928 23.258H36.7148V25.596H39.0528V21.256H27.9928V23.258ZM51.8476 15.922V13.5H49.4816V22.348H51.8476V18.218H53.2476V15.922H51.8476ZM48.1796 13.64H45.8696V15.152H43.1956V13.64H40.8856V20.626H48.1796V13.64ZM43.1956 18.652V17.084H45.8696V18.652H43.1956ZM43.6996 21.326H41.2916V25.456H52.0156V23.328H43.6996V21.326ZM60.1344 13.304C56.9984 13.304 54.7024 14.018 54.7024 15.74C54.7024 17.462 56.9984 18.176 60.1344 18.176C63.2704 18.176 65.5664 17.462 65.5664 15.74C65.5664 14.018 63.2704 13.304 60.1344 13.304ZM60.1344 15.082C61.9124 15.082 63.0464 15.292 63.0464 15.74C63.0464 16.202 61.9124 16.398 60.1344 16.398C58.3564 16.398 57.2224 16.202 57.2224 15.74C57.2224 15.292 58.3564 15.082 60.1344 15.082ZM66.1824 18.624H54.0864V20.444H66.1824V18.624ZM60.1344 20.92C56.9144 20.92 54.6744 21.536 54.6744 23.258C54.6744 24.98 56.9144 25.596 60.1344 25.596C63.3544 25.596 65.5944 24.98 65.5944 23.258C65.5944 21.536 63.3544 20.92 60.1344 20.92ZM60.1344 22.684C61.8704 22.684 63.0744 22.838 63.0744 23.258C63.0744 23.692 61.8704 23.832 60.1344 23.832C58.3984 23.832 57.1944 23.692 57.1944 23.258C57.1944 22.838 58.3984 22.684 60.1344 22.684ZM19.692 36.582L24.592 39.046L25.67 37.142L20.854 34.776C20.966 34.496 21.064 34.23 21.134 33.936H25.166V31.78H14.302V33.936H18.572C17.9 35.686 16.052 36.736 14.092 36.778V38.948C16.29 38.934 18.334 38.038 19.692 36.582ZM20.924 40.824V38.486H18.544V40.824H13.686V43.036H25.782V40.824H20.924ZM39.7808 35.868H38.3808V31.5H36.0148V43.456H38.3808V38.164H39.7808V35.868ZM32.7668 31.822L30.3588 31.738C30.3448 36.736 29.0708 40.236 27.1528 40.46V42.896C28.9728 42.882 30.4708 41.636 31.4508 39.396L33.8308 42.882L35.7628 41.524L32.3048 36.652C32.5988 35.252 32.7668 33.628 32.7668 31.822Z" fill="white"/>
</g>
<defs>
<linearGradient id="paint0_linear_75_1346" x1="98" y1="55" x2="161" y2="55" gradientUnits="userSpaceOnUse">
<stop stop-color="#53616D"/>
<stop offset="1" stop-color="#373E4A"/>
</linearGradient>
<linearGradient id="paint1_linear_75_1346" x1="98" y1="71" x2="161" y2="71" gradientUnits="userSpaceOnUse">
<stop stop-color="#53616D"/>
<stop offset="1" stop-color="#373E4A"/>
</linearGradient>
<linearGradient id="paint2_linear_75_1346" x1="61.5" y1="38" x2="61.5" y2="84.5" gradientUnits="userSpaceOnUse">
<stop stop-color="#212936" stop-opacity="0"/>
<stop offset="1" stop-color="#212936"/>
</linearGradient>
<clipPath id="clip0_75_1346">
<rect width="123" height="77" fill="white"/>
</clipPath>
</defs>
</svg>
