<svg width="36" height="36" viewBox="0 0 36 36" fill="none" xmlns="http://www.w3.org/2000/svg">
<rect width="36" height="36" rx="13" fill="white" fill-opacity="0.1"/>
<path d="M20.3334 24C21.2538 24 22 23.1941 22 22.2C22 21.2059 21.2538 20.4 20.3334 20.4C19.4129 20.4 18.6667 21.2059 18.6667 22.2C18.6667 23.1941 19.4129 24 20.3334 24Z" stroke="white" stroke-linecap="round" stroke-linejoin="round"/>
<path d="M13.6667 19.8C14.5871 19.8 15.3333 18.9941 15.3333 18C15.3333 17.0059 14.5871 16.2 13.6667 16.2C12.7462 16.2 12 17.0059 12 18C12 18.9941 12.7462 19.8 13.6667 19.8Z" stroke="white" stroke-linecap="round" stroke-linejoin="round"/>
<path d="M15.1056 18.906L18.9 21.294" stroke="white" stroke-linecap="round" stroke-linejoin="round"/>
<path d="M20.3334 15.6C21.2538 15.6 22 14.7941 22 13.8C22 12.8059 21.2538 12 20.3334 12C19.4129 12 18.6667 12.8059 18.6667 13.8C18.6667 14.7941 19.4129 15.6 20.3334 15.6Z" stroke="white" stroke-linecap="round" stroke-linejoin="round"/>
<path d="M18.8945 14.706L15.1056 17.094" stroke="white" stroke-linecap="round" stroke-linejoin="round"/>
</svg>
