<svg width="123" height="77" viewBox="0 0 123 77" fill="none" xmlns="http://www.w3.org/2000/svg">
<rect width="123" height="77" fill="#212936"/>
<path d="M19.2891 29.2461H26.6367V50H29.5693V29.2461H36.8848V26.668H19.2891V29.2461ZM59.5078 38.334C59.5239 30.9541 55.1733 26.3457 49.1953 26.3457C43.2012 26.3457 38.8667 30.9541 38.8828 38.334C38.8667 45.7139 43.2012 50.3223 49.1953 50.3223C55.1733 50.3223 59.5239 45.7139 59.5078 38.334ZM41.6865 38.334C41.7026 32.3076 44.9736 29.0527 49.1953 29.0527C53.417 29.0527 56.688 32.3076 56.7041 38.334C56.688 44.3442 53.417 47.5991 49.1953 47.6152C44.9736 47.5991 41.7026 44.3442 41.6865 38.334ZM82.292 26.668H79.4238V44.876H79.1982L66.5654 26.668H63.7617V50H66.6621V31.8242H66.8877L79.5205 50H82.292V26.668ZM87.4482 50H101.757V47.4219H90.3486V39.5908H100.854V37.0449H90.3486V29.2461H101.596V26.668H87.4482V50Z" fill="white"/>
</svg>
