<svg width="60" height="60" viewBox="0 0 60 60" fill="none" xmlns="http://www.w3.org/2000/svg">
<g clip-path="url(#clip0_270_2518)">
<path d="M28.4863 59.9693C21.8499 59.4002 16.9233 57.6423 12.1644 54.1454C4.44376 48.4721 0 39.6468 0 29.9869C0 15.1116 10.5068 2.79839 25.2744 0.36718C31.3025 -0.625231 37.9783 0.416445 43.5624 3.22081C57.1386 10.0389 63.3437 25.7619 58.205 40.324C54.6771 50.3217 45.4153 57.9418 34.8139 59.5689C32.7283 59.889 29.7488 60.0776 28.4863 59.9693Z" fill="#1DA1F2"/>
<path fill-rule="evenodd" clip-rule="evenodd" d="M45.0891 17.5771C44.1593 18.1726 42.0245 19.038 40.9717 19.038V19.0398C39.7696 17.784 38.0772 17 36.2002 17C32.5547 17 29.5986 19.9561 29.5986 23.6002C29.5986 24.1065 29.6572 24.6004 29.7657 25.074H29.7646C24.8196 24.9442 19.4112 22.4656 16.1554 18.2235C14.1536 21.6884 15.8859 25.5419 18.1575 26.946C17.3799 27.0046 15.9484 26.8564 15.2747 26.1989C15.2295 28.4987 16.3353 31.5458 20.3673 32.6512C19.5908 33.069 18.2162 32.9492 17.6185 32.8603C17.8283 34.8016 20.5468 37.3396 23.5196 37.3396C22.4601 38.5652 18.4736 40.7881 14 40.0809C17.0382 41.9294 20.5792 43 24.3271 43C34.9778 43 43.2491 34.3682 42.8039 23.7196C42.8021 23.7079 42.8021 23.6962 42.8011 23.6834C42.8021 23.656 42.8039 23.6286 42.8039 23.6002C42.8039 23.5671 42.8011 23.5358 42.8 23.5038C43.7696 22.8407 45.0706 21.6677 46 20.1239C45.461 20.4208 43.8439 21.0153 42.3392 21.1628C43.3049 20.6416 44.7356 18.9346 45.0891 17.5771Z" fill="white"/>
</g>
<defs>
<clipPath id="clip0_270_2518">
<rect width="60" height="60" fill="white"/>
</clipPath>
</defs>
</svg>
